# xmcd CD database file
#
# Track frame offsets:
#	150
#	20512
#	42137
#	63487
#	79337
#	91500
#	103500
#	125312
#	140075
#	157337
#
# Disc length: 2402 seconds
#
# Revision: 4
# Processed by: cddbd v1.5.1PL0 Copyright (c) Steve Scherf et al.
# Submitted via: CDex 1.51
#
DISCID=8009600a
DTITLE=George Shearing - Grand Piano
DYEAR=1900
DGENRE=Jazz
TTITLE0=When A Woman Loves A Man
TTITLE1=It Never Entered My Mind
TTITLE2=Mack The Knife
TTITLE3=Nobody Else But Me
TTITLE4=Imitations
TTITLE5=Taking A Chance On Love
TTITLE6=If I Had You
TTITLE7=How Insensitive
TTITLE8=Easy To Love
TTITLE9=While We're Young
EXTD=
EXTT0=
EXTT1=
EXTT2=
EXTT3=
EXTT4=
EXTT5=
EXTT6=
EXTT7=
EXTT8=
EXTT9=
PLAYORDER=
